<svg version="1.2" xmlns="http://www.w3.org/2000/svg" viewBox="0 0 173 41" width="173" height="41">
	<title>New Project</title>
	<style>
		.s0 { fill: #cd0200 } 
	</style>
	<path id="AndhraCentral" class="s0" aria-label="AndhraCentral"  d="m16 29h4.5l-6.3-17.6-5 0.1-6.3 17.5h4.4l1.1-3.1h6.5zm-2.1-6.4h-4.3l2.1-6.4zm16.1 6.4h4.3v-8.2c0-3.7-2.2-5.9-5.4-5.9-1.9 0-3.4 0.8-4.2 2v-1.9h-4.3v14h4.3v-7.6c0-1.9 1-3 2.7-3 1.6 0 2.6 1.1 2.6 3zm4.3-7c0 4.4 2.7 7.2 6.2 7.2 2 0 3.5-0.9 4.3-2.2v2h4.2v-18.5h-4.2v6.5c-0.9-1.3-2.5-2.2-4.3-2.2-3.5 0-6.2 2.8-6.2 7.2zm10.5 0c0 2.2-1.5 3.5-3.1 3.5-1.6 0-3-1.3-3-3.5 0-2.2 1.4-3.4 3-3.4 1.6 0 3.1 1.2 3.1 3.4zm5.2 7h4.3v-7.6c0-1.9 1.1-2.9 2.7-2.9 1.6 0 2.7 1 2.7 2.9v7.6h4.2v-8.2c0-3.7-2.1-5.9-5.3-5.9-1.9 0-3.4 0.8-4.3 2v-6.4h-4.3zm19.1-6.5c0-2.4 1.1-3.1 3.2-3.1h1.1v-4.5c-1.8 0-3.4 1-4.3 2.5v-2.4h-4.3v14h4.3zm3.4-0.5c0 4.4 2.8 7.2 6.2 7.2 2 0 3.5-1 4.3-2.2v2h4.3v-14h-4.3v2c-0.8-1.2-2.2-2.2-4.3-2.2-3.4 0-6.2 2.8-6.2 7.2zm10.5 0c0 2.2-1.4 3.4-3.1 3.4-1.6 0-3-1.2-3-3.4 0-2.3 1.4-3.5 3-3.5 1.7 0 3.1 1.3 3.1 3.5zm4.5-1.8c0 5.2 3.7 8.9 8.9 8.9 4.1 0 7.3-2.3 8.3-6.1h-4.7c-0.7 1.5-2.1 2.2-3.7 2.2-2.6 0-4.4-1.9-4.4-5 0-3.1 1.8-5.1 4.4-5.1 1.6 0 3 0.8 3.7 2.3h4.7c-1-3.8-4.2-6.2-8.3-6.2-5.2 0-8.9 3.7-8.9 9zm23.9-2c1.4 0 2.6 0.9 2.6 2.4h-5.4c0.3-1.5 1.4-2.4 2.8-2.4zm6.6 6.1h-4.5c-0.4 0.8-1 1.4-2.2 1.4-1.4 0-2.5-0.9-2.7-2.7h9.7c0-0.4 0.1-0.8 0.1-1.2 0-4.3-2.9-7-7-7-4.1 0-7 2.8-7 7.2 0 4.4 2.9 7.2 7 7.2 3.5 0 6-2.1 6.6-4.9zm10.1 4.7h4.3v-8.2c0-3.7-2.2-5.9-5.4-5.9-1.9 0-3.4 0.8-4.2 2v-1.9h-4.3v14h4.3v-7.6c0-1.9 1-3 2.7-3 1.6 0 2.6 1.1 2.6 3zm5.8-4.9c0 3.7 2.1 4.9 5 4.9h2.1v-3.6h-1.5c-0.9 0-1.3-0.4-1.3-1.2v-5.6h2.8v-3.6h-2.8v-3.4h-4.3v3.4h-1.7v3.6h1.7zm11.7-1.6c0-2.4 1.2-3.1 3.2-3.1h1.2v-4.6c-1.9 0-3.4 1-4.4 2.5v-2.3h-4.3v13.9h4.3zm3.5-0.5c0 4.4 2.7 7.2 6.1 7.2 2.1 0 3.5-0.9 4.3-2.2v2h4.3v-13.9h-4.3v1.9c-0.7-1.2-2.2-2.1-4.3-2.1-3.4 0-6.1 2.7-6.1 7.1zm10.4 0c0 2.3-1.4 3.5-3 3.5-1.6 0-3.1-1.2-3.1-3.5 0-2.2 1.5-3.4 3.1-3.4 1.6 0 3 1.2 3 3.4zm5.3 7h4.3v-18.5h-4.3z"/>
</svg>