<?xml version="1.0" encoding="UTF-8" standalone="no"?>
<svg
   width="156"
   height="28"
   viewBox="0 0 156 28"
   version="1.1"
   id="svg1"
   xmlns="http://www.w3.org/2000/svg"
   xmlns:svg="http://www.w3.org/2000/svg">
  <defs
     id="defs1" />
  <title
     id="title1">AndhraCentral</title>
  <g
     id="Page-1"
     stroke="none"
     stroke-width="1"
     fill="none"
     fill-rule="evenodd"
     font-family="Poppins-SemiBold, 'Poppins SemiBold'"
     font-size="20px"
     font-weight="500"
     letter-spacing="-1.3">
    <g
       id="Group-19"
       transform="translate(-6,-5)"
       fill="#cd0200">
      <path
         d="m 26.470001,23.34 h -5.56 l -0.92,2.66 h -2.94 l 5.02,-13.98 h 3.26 l 5.02,13.98 h -2.96 z m -0.76,-2.24 -2.02,-5.84 -2.02,5.84 z m 11.359992,-6.34 q 1.98,0 3.2,1.26 1.22,1.24 1.22,3.48 V 26 h -2.8 v -6.12 q 0,-1.32 -0.66,-2.02 -0.66,-0.72 -1.8,-0.72 -1.16,0 -1.84,0.72 -0.66,0.7 -0.66,2.02 V 26 h -2.8 V 14.92 h 2.8 v 1.38 q 0.56,-0.72 1.42,-1.12 0.88,-0.42 1.92,-0.42 z m 5.059985,5.66 q 0,-1.68 0.66,-2.98 0.68,-1.3 1.84,-2 1.16,-0.7 2.58,-0.7 1.08,0 2.06,0.48 0.98,0.46 1.56,1.24 V 11.2 h 2.84 V 26 h -2.84 v -1.64 q -0.52,0.82 -1.46,1.32 -0.94,0.5 -2.18,0.5 -1.4,0 -2.56,-0.72 -1.16,-0.72 -1.84,-2.02 -0.66,-1.32 -0.66,-3.02 z m 8.72,0.04 q 0,-1.02 -0.4,-1.74 -0.4,-0.74 -1.08,-1.12 -0.68,-0.4 -1.46,-0.4 -0.78,0 -1.44,0.38 -0.66,0.38 -1.08,1.12 -0.4,0.72 -0.4,1.72 0,1 0.4,1.76 0.42,0.74 1.08,1.14 0.68,0.4 1.44,0.4 0.78,0 1.46,-0.38 0.68,-0.4 1.08,-1.12 0.4,-0.74 0.4,-1.76 z m 10.499989,-5.7 q 1.26,0 2.24,0.56 0.98,0.54 1.52,1.62 0.56,1.06 0.56,2.56 V 26 h -2.8 v -6.12 q 0,-1.32 -0.66,-2.02 -0.66,-0.72 -1.8,-0.72 -1.16,0 -1.84,0.72 -0.66,0.7 -0.66,2.02 V 26 h -2.8 V 11.2 h 2.8 v 5.1 q 0.54,-0.72 1.44,-1.12 0.9,-0.42 2,-0.42 z m 8.479987,1.88 q 0.54,-0.88 1.4,-1.38 0.88,-0.5 2,-0.5 v 2.94 h -0.74 q -1.32,0 -2,0.62 -0.66,0.62 -0.66,2.16 V 26 h -2.8 V 14.92 h 2.8 z m 3.259987,3.78 q 0,-1.68 0.66,-2.98 0.68,-1.3 1.82,-2 1.16,-0.7 2.58,-0.7 1.24,0 2.16,0.5 0.94,0.5 1.5,1.26 v -1.58 h 2.82 V 26 h -2.82 v -1.62 q -0.54,0.78 -1.5,1.3 -0.94,0.5 -2.18,0.5 -1.4,0 -2.56,-0.72 -1.14,-0.72 -1.82,-2.02 -0.66,-1.32 -0.66,-3.02 z m 8.72,0.04 q 0,-1.02 -0.4,-1.74 -0.4,-0.74 -1.08,-1.12 -0.68,-0.4 -1.46,-0.4 -0.78,0 -1.44,0.38 -0.66,0.38 -1.08,1.12 -0.4,0.72 -0.4,1.72 0,1 0.4,1.76 0.42,0.74 1.08,1.14 0.68,0.4 1.44,0.4 0.78,0 1.46,-0.38 0.68,-0.4 1.08,-1.12 0.4,-0.74 0.4,-1.76 z M 85.389928,19 q 0,-2.06 0.92,-3.68 0.94,-1.64 2.54,-2.54 1.62,-0.92 3.62,-0.92 2.34,0 4.1,1.2 1.76,1.2 2.46,3.32 h -3.22 q -0.48,-1 -1.36,-1.5 -0.86,-0.5 -2,-0.5 -1.22,0 -2.18,0.58 -0.94,0.56 -1.48,1.6 -0.52,1.04 -0.52,2.44 0,1.38 0.52,2.44 0.54,1.04 1.48,1.62 0.96,0.56 2.18,0.56 1.14,0 2,-0.5 0.88,-0.52 1.36,-1.52 h 3.22 q -0.7,2.14 -2.46,3.34 -1.74,1.18 -4.1,1.18 -2,0 -3.62,-0.9 -1.6,-0.92 -2.54,-2.54 -0.92,-1.62 -0.92,-3.68 z m 25.040002,1.22 q 0,0.6 -0.08,1.08 h -8.1 q 0.1,1.2 0.84,1.88 0.74,0.68 1.82,0.68 1.56,0 2.22,-1.34 h 3.02 q -0.48,1.6 -1.84,2.64 -1.36,1.02 -3.34,1.02 -1.6,0 -2.88,-0.7 -1.26,-0.72 -1.98,-2.02 -0.700004,-1.3 -0.700004,-3 0,-1.72 0.700004,-3.02 0.7,-1.3 1.96,-2 1.26,-0.7 2.9,-0.7 1.58,0 2.82,0.68 1.26,0.68 1.94,1.94 0.7,1.24 0.7,2.86 z m -2.9,-0.8 q -0.02,-1.08 -0.78,-1.72 -0.76,-0.66 -1.86,-0.66 -1.04,0 -1.76,0.64 -0.7,0.62 -0.86,1.74 z m 9.78,-4.66 q 1.98,0 3.2,1.26 1.22,1.24 1.22,3.48 V 26 h -2.8 v -6.12 q 0,-1.32 -0.66,-2.02 -0.66,-0.72 -1.8,-0.72 -1.16,0 -1.84,0.72 -0.66,0.7 -0.66,2.02 V 26 h -2.8 V 14.92 h 2.8 v 1.38 q 0.56,-0.72 1.42,-1.12 0.88,-0.42 1.92,-0.42 z m 9.03999,2.46 v 5.36 q 0,0.56 0.26,0.82 0.28,0.24 0.92,0.24 h 1.3 V 26 h -1.76 q -3.54,0 -3.54,-3.44 v -5.34 h -1.32 v -2.3 h 1.32 v -2.74 h 2.82 v 2.74 h 2.48 v 2.3 z m 6.00001,-0.58 q 0.54,-0.88 1.4,-1.38 0.88,-0.5 2,-0.5 v 2.94 h -0.74 q -1.32,0 -2,0.62 -0.66,0.62 -0.66,2.16 V 26 h -2.8 V 14.92 h 2.8 z m 3.25998,3.78 q 0,-1.68 0.66,-2.98 0.68,-1.3 1.82,-2 1.16,-0.7 2.58,-0.7 1.24,0 2.16,0.5 0.94,0.5 1.5,1.26 v -1.58 h 2.82 V 26 h -2.82 v -1.62 q -0.54,0.78 -1.5,1.3 -0.94,0.5 -2.18,0.5 -1.4,0 -2.56,-0.72 -1.14,-0.72 -1.82,-2.02 -0.66,-1.32 -0.66,-3.02 z m 8.72,0.04 q 0,-1.02 -0.4,-1.74 -0.4,-0.74 -1.08,-1.12 -0.68,-0.4 -1.46,-0.4 -0.78,0 -1.44,0.38 -0.66,0.38 -1.08,1.12 -0.4,0.72 -0.4,1.72 0,1 0.4,1.76 0.42,0.74 1.08,1.14 0.68,0.4 1.44,0.4 0.78,0 1.46,-0.38 0.68,-0.4 1.08,-1.12 0.4,-0.74 0.4,-1.76 z M 151.3899,11.2 V 26 h -2.8 V 11.2 Z"
         id="AndhraCentral"
         aria-label="AndhraCentral" />
    </g>
  </g>
</svg>
